STARTFONT 2.1
FONT -FontForge-Bitstream Vera Sans-Book-R-Normal-Sans--14-100-100-100-P-83-ISO8859-1
SIZE 10 100 100
FONTBOUNDINGBOX 21 16 -3 -3
COMMENT "Generated by fontforge, http://fontforge.sourceforge.net"
COMMENT "Copyright (c) 2003 by Bitstream, Inc. All Rights Reserved."
STARTPROPERTIES 40
FOUNDRY "FontForge"
FAMILY_NAME "Bitstream Vera Sans"
WEIGHT_NAME "Book"
SLANT "R"
SETWIDTH_NAME "Normal"
ADD_STYLE_NAME "Sans"
PIXEL_SIZE 14
POINT_SIZE 100
RESOLUTION_X 100
RESOLUTION_Y 100
SPACING "P"
AVERAGE_WIDTH 83
CHARSET_REGISTRY "ISO8859"
CHARSET_ENCODING "1"
FONTNAME_REGISTRY ""
CHARSET_COLLECTIONS "ISO8859-9 ISOLatin1Encoding"
FONT_NAME "BitstreamVeraSans-Roman"
FACE_NAME "Bitstream Vera Sans"
COPYRIGHT "Copyright (c) 2003 by Bitstream, Inc. All Rights Reserved."
FONT_VERSION "Release 1.10"
FONT_ASCENT 11
FONT_DESCENT 3
UNDERLINE_POSITION -2
UNDERLINE_THICKNESS 1
X_HEIGHT 7
CAP_HEIGHT 9
RAW_ASCENT 759
RAW_DESCENT 240
NORM_SPACE 4
RELATIVE_WEIGHT 40
RELATIVE_SETWIDTH 50
SUPERSCRIPT_X 0
SUPERSCRIPT_Y 4
SUPERSCRIPT_SIZE 8
SUBSCRIPT_X 0
SUBSCRIPT_Y -3
SUBSCRIPT_SIZE 8
FIGURE_WIDTH 9
AVG_LOWERCASE_WIDTH 78
AVG_UPPERCASE_WIDTH 92
ENDPROPERTIES
CHARS 268
STARTCHAR space
ENCODING 32
SWIDTH 317 0
DWIDTH 4 0
BBX 1 1 0 0
BITMAP
00
ENDCHAR
STARTCHAR exclam
ENCODING 33
SWIDTH 400 0
DWIDTH 5 0
BBX 1 10 2 0
BITMAP
80
80
80
80
80
80
00
00
80
80
ENDCHAR
STARTCHAR quotedbl
ENCODING 34
SWIDTH 459 0
DWIDTH 5 0
BBX 3 4 1 6
BITMAP
A0
A0
A0
A0
ENDCHAR
STARTCHAR numbersign
ENCODING 35
SWIDTH 837 0
DWIDTH 12 0
BBX 10 10 1 0
BITMAP
0900
0900
0900
7FC0
1200
1200
FF80
2600
2400
2400
ENDCHAR
STARTCHAR dollar
ENCODING 36
SWIDTH 636 0
DWIDTH 9 0
BBX 7 13 1 -2
BITMAP
10
10
7C
92
90
D0
7C
16
12
92
7C
10
10
ENDCHAR
STARTCHAR percent
ENCODING 37
SWIDTH 950 0
DWIDTH 13 0
BBX 12 10 0 0
BITMAP
7080
8880
8900
8B00
8AE0
7510
0D10
0910
1110
10E0
ENDCHAR
STARTCHAR ampersand
ENCODING 38
SWIDTH 779 0
DWIDTH 12 0
BBX 10 10 1 0
BITMAP
3800
4400
4000
2000
5000
8840
8440
8280
4300
3CC0
ENDCHAR
STARTCHAR quotesingle
ENCODING 39
SWIDTH 274 0
DWIDTH 3 0
BBX 1 4 1 6
BITMAP
80
80
80
80
ENDCHAR
STARTCHAR parenleft
ENCODING 40
SWIDTH 390 0
DWIDTH 5 0
BBX 3 12 1 -1
BITMAP
60
40
40
80
80
80
80
80
80
40
40
20
ENDCHAR
STARTCHAR parenright
ENCODING 41
SWIDTH 390 0
DWIDTH 5 0
BBX 3 12 1 -1
BITMAP
80
40
40
20
20
20
20
20
20
40
40
80
ENDCHAR
STARTCHAR asterisk
ENCODING 42
SWIDTH 500 0
DWIDTH 7 0
BBX 7 6 0 4
BITMAP
10
92
7C
38
D6
10
ENDCHAR
STARTCHAR plus
ENCODING 43
SWIDTH 837 0
DWIDTH 12 0
BBX 9 9 1 0
BITMAP
0800
0800
0800
0800
FF80
0800
0800
0800
0800
ENDCHAR
STARTCHAR comma
ENCODING 44
SWIDTH 317 0
DWIDTH 4 0
BBX 2 3 1 -1
BITMAP
40
40
80
ENDCHAR
STARTCHAR hyphen
ENCODING 45
SWIDTH 360 0
DWIDTH 5 0
BBX 4 1 1 3
BITMAP
F0
ENDCHAR
STARTCHAR period
ENCODING 46
SWIDTH 317 0
DWIDTH 4 0
BBX 1 2 2 0
BITMAP
80
80
ENDCHAR
STARTCHAR slash
ENCODING 47
SWIDTH 336 0
DWIDTH 5 0
BBX 5 12 0 -2
BITMAP
08
18
10
10
30
20
20
60
40
40
C0
80
ENDCHAR
STARTCHAR zero
ENCODING 48
SWIDTH 636 0
DWIDTH 9 0
BBX 7 10 1 0
BITMAP
38
44
82
82
82
82
82
82
44
38
ENDCHAR
STARTCHAR one
ENCODING 49
SWIDTH 636 0
DWIDTH 9 0
BBX 5 10 2 0
BITMAP
60
A0
20
20
20
20
20
20
20
F8
ENDCHAR
STARTCHAR two
ENCODING 50
SWIDTH 636 0
DWIDTH 9 0
BBX 6 10 1 0
BITMAP
78
8C
04
04
0C
08
10
20
40
FC
ENDCHAR
STARTCHAR three
ENCODING 51
SWIDTH 636 0
DWIDTH 9 0
BBX 7 10 1 0
BITMAP
7C
86
02
02
3C
06
02
02
86
78
ENDCHAR
STARTCHAR four
ENCODING 52
SWIDTH 636 0
DWIDTH 9 0
BBX 7 10 1 0
BITMAP
0C
14
24
24
44
84
FE
04
04
04
ENDCHAR
STARTCHAR five
ENCODING 53
SWIDTH 636 0
DWIDTH 9 0
BBX 7 10 1 0
BITMAP
FC
80
80
F8
84
02
02
02
84
78
ENDCHAR
STARTCHAR six
ENCODING 54
SWIDTH 636 0
DWIDTH 9 0
BBX 7 10 1 0
BITMAP
3C
62
C0
80
BC
C6
82
82
46
3C
ENDCHAR
STARTCHAR seven
ENCODING 55
SWIDTH 636 0
DWIDTH 9 0
BBX 7 10 1 0
BITMAP
FE
04
04
08
08
10
10
20
20
40
ENDCHAR
STARTCHAR eight
ENCODING 56
SWIDTH 636 0
DWIDTH 9 0
BBX 7 10 1 0
BITMAP
7C
C6
82
C6
38
C6
82
82
C6
7C
ENDCHAR
STARTCHAR nine
ENCODING 57
SWIDTH 636 0
DWIDTH 9 0
BBX 7 10 1 0
BITMAP
78
C4
82
82
C6
7A
02
06
8C
78
ENDCHAR
STARTCHAR colon
ENCODING 58
SWIDTH 336 0
DWIDTH 5 0
BBX 1 7 2 0
BITMAP
80
80
00
00
00
80
80
ENDCHAR
STARTCHAR semicolon
ENCODING 59
SWIDTH 336 0
DWIDTH 5 0
BBX 2 8 1 -1
BITMAP
40
40
00
00
00
40
40
80
ENDCHAR
STARTCHAR less
ENCODING 60
SWIDTH 837 0
DWIDTH 12 0
BBX 9 8 1 0
BITMAP
0080
0700
3800
E000
E000
3800
0700
0080
ENDCHAR
STARTCHAR equal
ENCODING 61
SWIDTH 837 0
DWIDTH 12 0
BBX 9 4 1 3
BITMAP
FF80
0000
0000
FF80
ENDCHAR
STARTCHAR greater
ENCODING 62
SWIDTH 837 0
DWIDTH 12 0
BBX 9 8 1 0
BITMAP
8000
7000
0E00
0380
0380
0E00
7000
8000
ENDCHAR
STARTCHAR question
ENCODING 63
SWIDTH 530 0
DWIDTH 7 0
BBX 5 10 1 0
BITMAP
70
88
08
18
30
20
20
00
20
20
ENDCHAR
STARTCHAR at
ENCODING 64
SWIDTH 1000 0
DWIDTH 14 0
BBX 12 12 1 -2
BITMAP
0F80
3040
4020
4E90
9990
9090
9090
99A0
4EC0
4000
3040
0F80
ENDCHAR
STARTCHAR A
ENCODING 65
SWIDTH 684 0
DWIDTH 9 0
BBX 9 10 0 0
BITMAP
0800
1400
1400
2200
2200
2200
7F00
4100
4100
8080
ENDCHAR
STARTCHAR B
ENCODING 66
SWIDTH 686 0
DWIDTH 10 0
BBX 8 10 1 0
BITMAP
FE
83
81
83
FE
83
81
81
83
FE
ENDCHAR
STARTCHAR C
ENCODING 67
SWIDTH 698 0
DWIDTH 10 0
BBX 8 10 1 0
BITMAP
3E
61
C0
80
80
80
80
C0
61
3E
ENDCHAR
STARTCHAR D
ENCODING 68
SWIDTH 770 0
DWIDTH 11 0
BBX 9 10 1 0
BITMAP
FC00
8300
8180
8080
8080
8080
8080
8180
8300
FC00
ENDCHAR
STARTCHAR E
ENCODING 69
SWIDTH 631 0
DWIDTH 9 0
BBX 7 10 1 0
BITMAP
FE
80
80
80
FE
80
80
80
80
FE
ENDCHAR
STARTCHAR F
ENCODING 70
SWIDTH 575 0
DWIDTH 8 0
BBX 6 10 1 0
BITMAP
FC
80
80
80
FC
80
80
80
80
80
ENDCHAR
STARTCHAR G
ENCODING 71
SWIDTH 774 0
DWIDTH 11 0
BBX 9 10 1 0
BITMAP
1F00
6080
4000
8000
8000
8380
8080
4080
6080
1F00
ENDCHAR
STARTCHAR H
ENCODING 72
SWIDTH 751 0
DWIDTH 10 0
BBX 8 10 1 0
BITMAP
81
81
81
81
FF
81
81
81
81
81
ENDCHAR
STARTCHAR I
ENCODING 73
SWIDTH 294 0
DWIDTH 3 0
BBX 1 10 1 0
BITMAP
80
80
80
80
80
80
80
80
80
80
ENDCHAR
STARTCHAR J
ENCODING 74
SWIDTH 294 0
DWIDTH 3 0
BBX 3 13 -1 -3
BITMAP
20
20
20
20
20
20
20
20
20
20
20
20
C0
ENDCHAR
STARTCHAR K
ENCODING 75
SWIDTH 655 0
DWIDTH 9 0
BBX 7 10 1 0
BITMAP
82
84
88
90
E0
A0
90
88
84
82
ENDCHAR
STARTCHAR L
ENCODING 76
SWIDTH 557 0
DWIDTH 7 0
BBX 6 10 1 0
BITMAP
80
80
80
80
80
80
80
80
80
FC
ENDCHAR
STARTCHAR M
ENCODING 77
SWIDTH 862 0
DWIDTH 12 0
BBX 10 10 1 0
BITMAP
C0C0
C0C0
A140
A140
9240
9240
8C40
8C40
8040
8040
ENDCHAR
STARTCHAR N
ENCODING 78
SWIDTH 748 0
DWIDTH 10 0
BBX 8 10 1 0
BITMAP
C1
C1
A1
91
91
89
89
85
83
83
ENDCHAR
STARTCHAR O
ENCODING 79
SWIDTH 787 0
DWIDTH 11 0
BBX 9 10 1 0
BITMAP
3E00
6300
C180
8080
8080
8080
8080
C180
6300
3E00
ENDCHAR
STARTCHAR P
ENCODING 80
SWIDTH 603 0
DWIDTH 9 0
BBX 7 10 1 0
BITMAP
FC
86
82
82
86
FC
80
80
80
80
ENDCHAR
STARTCHAR Q
ENCODING 81
SWIDTH 787 0
DWIDTH 11 0
BBX 9 12 1 -2
BITMAP
3E00
6300
C180
8080
8080
8080
8080
C180
6300
3E00
0200
0100
ENDCHAR
STARTCHAR R
ENCODING 82
SWIDTH 694 0
DWIDTH 10 0
BBX 8 10 1 0
BITMAP
FC
86
82
82
86
FC
86
82
82
81
ENDCHAR
STARTCHAR S
ENCODING 83
SWIDTH 634 0
DWIDTH 9 0
BBX 7 10 1 0
BITMAP
7C
C2
80
80
60
1C
02
02
86
7C
ENDCHAR
STARTCHAR T
ENCODING 84
SWIDTH 610 0
DWIDTH 9 0
BBX 9 10 0 0
BITMAP
FF80
0800
0800
0800
0800
0800
0800
0800
0800
0800
ENDCHAR
STARTCHAR U
ENCODING 85
SWIDTH 731 0
DWIDTH 10 0
BBX 8 10 1 0
BITMAP
81
81
81
81
81
81
81
81
42
3C
ENDCHAR
STARTCHAR V
ENCODING 86
SWIDTH 684 0
DWIDTH 9 0
BBX 9 10 0 0
BITMAP
8080
4100
4100
4100
2200
2200
1400
1400
1400
0800
ENDCHAR
STARTCHAR W
ENCODING 87
SWIDTH 988 0
DWIDTH 13 0
BBX 13 10 0 0
BITMAP
8208
8508
4510
4510
4510
28A0
28A0
28A0
28A0
1040
ENDCHAR
STARTCHAR X
ENCODING 88
SWIDTH 685 0
DWIDTH 11 0
BBX 9 10 1 0
BITMAP
C180
4100
2200
1400
0800
1400
2200
2200
4100
C180
ENDCHAR
STARTCHAR Y
ENCODING 89
SWIDTH 610 0
DWIDTH 9 0
BBX 9 10 0 0
BITMAP
C180
4100
2200
2200
1400
0800
0800
0800
0800
0800
ENDCHAR
STARTCHAR Z
ENCODING 90
SWIDTH 685 0
DWIDTH 10 0
BBX 8 10 1 0
BITMAP
FF
01
02
04
08
10
20
40
80
FF
ENDCHAR
STARTCHAR bracketleft
ENCODING 91
SWIDTH 390 0
DWIDTH 5 0
BBX 3 12 1 -1
BITMAP
E0
80
80
80
80
80
80
80
80
80
80
E0
ENDCHAR
STARTCHAR backslash
ENCODING 92
SWIDTH 336 0
DWIDTH 5 0
BBX 5 12 0 -2
BITMAP
80
C0
40
40
60
20
20
30
10
10
18
08
ENDCHAR
STARTCHAR bracketright
ENCODING 93
SWIDTH 390 0
DWIDTH 5 0
BBX 3 12 1 -1
BITMAP
E0
20
20
20
20
20
20
20
20
20
20
E0
ENDCHAR
STARTCHAR asciicircum
ENCODING 94
SWIDTH 837 0
DWIDTH 12 0
BBX 9 4 1 6
BITMAP
1C00
3600
6300
C180
ENDCHAR
STARTCHAR underscore
ENCODING 95
SWIDTH 500 0
DWIDTH 7 0
BBX 7 1 0 -3
BITMAP
FE
ENDCHAR
STARTCHAR grave
ENCODING 96
SWIDTH 500 0
DWIDTH 7 0
BBX 3 3 1 9
BITMAP
C0
40
20
ENDCHAR
STARTCHAR a
ENCODING 97
SWIDTH 612 0
DWIDTH 8 0
BBX 6 8 1 0
BITMAP
78
84
04
7C
84
84
8C
74
ENDCHAR
STARTCHAR b
ENCODING 98
SWIDTH 634 0
DWIDTH 9 0
BBX 7 11 1 0
BITMAP
80
80
80
B8
C4
82
82
82
82
C4
B8
ENDCHAR
STARTCHAR c
ENCODING 99
SWIDTH 549 0
DWIDTH 8 0
BBX 6 8 1 0
BITMAP
38
44
80
80
80
80
44
38
ENDCHAR
STARTCHAR d
ENCODING 100
SWIDTH 634 0
DWIDTH 9 0
BBX 7 11 1 0
BITMAP
02
02
02
3A
46
82
82
82
82
46
3A
ENDCHAR
STARTCHAR e
ENCODING 101
SWIDTH 615 0
DWIDTH 9 0
BBX 7 8 1 0
BITMAP
3C
46
82
FE
80
80
42
3C
ENDCHAR
STARTCHAR f
ENCODING 102
SWIDTH 352 0
DWIDTH 4 0
BBX 4 11 0 0
BITMAP
30
40
40
F0
40
40
40
40
40
40
40
ENDCHAR
STARTCHAR g
ENCODING 103
SWIDTH 634 0
DWIDTH 9 0
BBX 7 11 1 -3
BITMAP
3A
46
82
82
82
82
46
3A
02
46
3C
ENDCHAR
STARTCHAR h
ENCODING 104
SWIDTH 633 0
DWIDTH 9 0
BBX 7 11 1 0
BITMAP
80
80
80
BC
C6
82
82
82
82
82
82
ENDCHAR
STARTCHAR i
ENCODING 105
SWIDTH 277 0
DWIDTH 3 0
BBX 1 11 1 0
BITMAP
80
80
00
80
80
80
80
80
80
80
80
ENDCHAR
STARTCHAR j
ENCODING 106
SWIDTH 277 0
DWIDTH 3 0
BBX 3 14 -1 -3
BITMAP
20
20
00
20
20
20
20
20
20
20
20
20
20
C0
ENDCHAR
STARTCHAR k
ENCODING 107
SWIDTH 579 0
DWIDTH 8 0
BBX 6 11 1 0
BITMAP
80
80
80
84
88
90
E0
A0
90
88
84
ENDCHAR
STARTCHAR l
ENCODING 108
SWIDTH 277 0
DWIDTH 3 0
BBX 1 11 1 0
BITMAP
80
80
80
80
80
80
80
80
80
80
80
ENDCHAR
STARTCHAR m
ENCODING 109
SWIDTH 974 0
DWIDTH 13 0
BBX 11 8 1 0
BITMAP
B9C0
C620
8420
8420
8420
8420
8420
8420
ENDCHAR
STARTCHAR n
ENCODING 110
SWIDTH 633 0
DWIDTH 9 0
BBX 7 8 1 0
BITMAP
BC
C6
82
82
82
82
82
82
ENDCHAR
STARTCHAR o
ENCODING 111
SWIDTH 611 0
DWIDTH 9 0
BBX 7 8 1 0
BITMAP
38
44
82
82
82
82
44
38
ENDCHAR
STARTCHAR p
ENCODING 112
SWIDTH 634 0
DWIDTH 9 0
BBX 7 11 1 -3
BITMAP
B8
C4
82
82
82
82
C4
B8
80
80
80
ENDCHAR
STARTCHAR q
ENCODING 113
SWIDTH 634 0
DWIDTH 9 0
BBX 7 11 1 -3
BITMAP
3A
46
82
82
82
82
46
3A
02
02
02
ENDCHAR
STARTCHAR r
ENCODING 114
SWIDTH 411 0
DWIDTH 5 0
BBX 4 8 1 0
BITMAP
B0
C0
80
80
80
80
80
80
ENDCHAR
STARTCHAR s
ENCODING 115
SWIDTH 520 0
DWIDTH 8 0
BBX 6 8 1 0
BITMAP
78
84
80
E0
1C
04
84
78
ENDCHAR
STARTCHAR t
ENCODING 116
SWIDTH 392 0
DWIDTH 5 0
BBX 5 10 0 0
BITMAP
40
40
F8
40
40
40
40
40
40
38
ENDCHAR
STARTCHAR u
ENCODING 117
SWIDTH 633 0
DWIDTH 9 0
BBX 7 8 1 0
BITMAP
82
82
82
82
82
82
C6
7A
ENDCHAR
STARTCHAR v
ENCODING 118
SWIDTH 591 0
DWIDTH 7 0
BBX 7 8 0 0
BITMAP
82
82
44
44
44
28
28
10
ENDCHAR
STARTCHAR w
ENCODING 119
SWIDTH 817 0
DWIDTH 11 0
BBX 9 8 1 0
BITMAP
8880
8880
8880
5500
5500
5500
2200
2200
ENDCHAR
STARTCHAR x
ENCODING 120
SWIDTH 591 0
DWIDTH 7 0
BBX 7 8 0 0
BITMAP
82
44
28
10
10
28
44
82
ENDCHAR
STARTCHAR y
ENCODING 121
SWIDTH 591 0
DWIDTH 7 0
BBX 7 11 0 -3
BITMAP
82
82
44
44
28
28
10
10
10
20
C0
ENDCHAR
STARTCHAR z
ENCODING 122
SWIDTH 524 0
DWIDTH 8 0
BBX 6 8 1 0
BITMAP
FC
04
08
10
20
40
80
FC
ENDCHAR
STARTCHAR braceleft
ENCODING 123
SWIDTH 636 0
DWIDTH 9 0
BBX 5 13 2 -2
BITMAP
18
20
20
20
20
20
C0
20
20
20
20
20
18
ENDCHAR
STARTCHAR bar
ENCODING 124
SWIDTH 336 0
DWIDTH 5 0
BBX 1 14 2 -3
BITMAP
80
80
80
80
80
80
80
80
80
80
80
80
80
80
ENDCHAR
STARTCHAR braceright
ENCODING 125
SWIDTH 636 0
DWIDTH 9 0
BBX 5 13 3 -2
BITMAP
C0
20
20
20
20
20
18
20
20
20
20
20
C0
ENDCHAR
STARTCHAR asciitilde
ENCODING 126
SWIDTH 837 0
DWIDTH 12 0
BBX 9 2 1 3
BITMAP
7880
8F00
ENDCHAR
STARTCHAR nonbreakingspace
ENCODING 160
SWIDTH 636 0
DWIDTH 9 0
BBX 1 1 0 0
BITMAP
00
ENDCHAR
STARTCHAR exclamdown
ENCODING 161
SWIDTH 400 0
DWIDTH 5 0
BBX 1 10 2 0
BITMAP
80
80
00
00
80
80
80
80
80
80
ENDCHAR
STARTCHAR cent
ENCODING 162
SWIDTH 636 0
DWIDTH 9 0
BBX 6 12 1 -2
BITMAP
10
10
38
54
90
90
90
90
54
38
10
10
ENDCHAR
STARTCHAR sterling
ENCODING 163
SWIDTH 636 0
DWIDTH 9 0
BBX 7 10 1 0
BITMAP
1C
22
20
20
20
7C
20
20
20
FE
ENDCHAR
STARTCHAR currency
ENCODING 164
SWIDTH 636 0
DWIDTH 9 0
BBX 8 8 1 0
BITMAP
81
7E
66
42
42
66
7E
81
ENDCHAR
STARTCHAR yen
ENCODING 165
SWIDTH 636 0
DWIDTH 9 0
BBX 7 10 1 0
BITMAP
82
44
44
28
EE
10
FE
10
10
10
ENDCHAR
STARTCHAR brokenbar
ENCODING 166
SWIDTH 336 0
DWIDTH 5 0
BBX 1 12 2 -2
BITMAP
80
80
80
80
80
00
00
80
80
80
80
80
ENDCHAR
STARTCHAR section
ENCODING 167
SWIDTH 500 0
DWIDTH 7 0
BBX 6 11 0 -1
BITMAP
7C
80
C0
70
8C
84
64
38
0C
04
F8
ENDCHAR
STARTCHAR dieresis
ENCODING 168
SWIDTH 500 0
DWIDTH 7 0
BBX 3 1 2 10
BITMAP
A0
ENDCHAR
STARTCHAR copyright
ENCODING 169
SWIDTH 1000 0
DWIDTH 14 0
BBX 10 10 2 0
BITMAP
1E00
6180
5E80
B040
A040
A040
B040
5E80
6180
1E00
ENDCHAR
STARTCHAR ordfeminine
ENCODING 170
SWIDTH 471 0
DWIDTH 7 0
BBX 5 8 1 2
BITMAP
70
08
78
88
88
78
00
F8
ENDCHAR
STARTCHAR guillemotleft
ENCODING 171
SWIDTH 611 0
DWIDTH 9 0
BBX 6 6 1 1
BITMAP
24
6C
D8
D8
6C
24
ENDCHAR
STARTCHAR logicalnot
ENCODING 172
SWIDTH 837 0
DWIDTH 12 0
BBX 9 4 1 2
BITMAP
FF80
0080
0080
0080
ENDCHAR
STARTCHAR sfthyphen
ENCODING 173
SWIDTH 360 0
DWIDTH 5 0
BBX 4 1 1 3
BITMAP
F0
ENDCHAR
STARTCHAR registered
ENCODING 174
SWIDTH 1000 0
DWIDTH 14 0
BBX 10 10 2 0
BITMAP
1E00
6180
5E80
9240
9C40
9440
9240
5380
6180
1E00
ENDCHAR
STARTCHAR macron
ENCODING 175
SWIDTH 500 0
DWIDTH 7 0
BBX 4 1 1 10
BITMAP
F0
ENDCHAR
STARTCHAR degree
ENCODING 176
SWIDTH 500 0
DWIDTH 7 0
BBX 4 4 1 6
BITMAP
60
90
90
60
ENDCHAR
STARTCHAR plusminus
ENCODING 177
SWIDTH 837 0
DWIDTH 12 0
BBX 9 9 1 0
BITMAP
0800
0800
0800
FF80
0800
0800
0800
0000
FF80
ENDCHAR
STARTCHAR twosuperior
ENCODING 178
SWIDTH 400 0
DWIDTH 6 0
BBX 4 6 1 4
BITMAP
E0
10
10
20
40
F0
ENDCHAR
STARTCHAR threesuperior
ENCODING 179
SWIDTH 400 0
DWIDTH 6 0
BBX 4 6 1 4
BITMAP
F0
10
60
10
10
E0
ENDCHAR
STARTCHAR acute
ENCODING 180
SWIDTH 500 0
DWIDTH 7 0
BBX 3 3 3 9
BITMAP
60
40
80
ENDCHAR
STARTCHAR mu
ENCODING 181
SWIDTH 636 0
DWIDTH 9 0
BBX 8 11 1 -3
BITMAP
82
82
82
82
82
82
C6
FB
80
80
80
ENDCHAR
STARTCHAR paragraph
ENCODING 182
SWIDTH 636 0
DWIDTH 9 0
BBX 6 11 1 -1
BITMAP
7C
F4
F4
F4
74
34
14
14
14
14
14
ENDCHAR
STARTCHAR periodcentered
ENCODING 183
SWIDTH 317 0
DWIDTH 4 0
BBX 1 2 2 4
BITMAP
80
80
ENDCHAR
STARTCHAR cedilla
ENCODING 184
SWIDTH 500 0
DWIDTH 7 0
BBX 3 3 2 -3
BITMAP
40
20
E0
ENDCHAR
STARTCHAR onesuperior
ENCODING 185
SWIDTH 400 0
DWIDTH 6 0
BBX 3 6 1 4
BITMAP
C0
40
40
40
40
E0
ENDCHAR
STARTCHAR ordmasculine
ENCODING 186
SWIDTH 471 0
DWIDTH 7 0
BBX 5 8 1 2
BITMAP
70
88
88
88
88
70
00
F8
ENDCHAR
STARTCHAR guillemotright
ENCODING 187
SWIDTH 611 0
DWIDTH 9 0
BBX 6 6 1 1
BITMAP
90
D8
6C
6C
D8
90
ENDCHAR
STARTCHAR onequarter
ENCODING 188
SWIDTH 969 0
DWIDTH 14 0
BBX 12 10 1 0
BITMAP
C080
4100
4300
4200
4420
E460
08A0
1920
11F0
2020
ENDCHAR
STARTCHAR onehalf
ENCODING 189
SWIDTH 969 0
DWIDTH 14 0
BBX 12 11 1 -1
BITMAP
C080
4100
4300
4200
4400
E4E0
0810
1810
1020
2040
00F0
ENDCHAR
STARTCHAR threequarters
ENCODING 190
SWIDTH 969 0
DWIDTH 14 0
BBX 12 10 1 0
BITMAP
F080
1100
6300
1200
1420
E460
08A0
1920
11F0
2020
ENDCHAR
STARTCHAR questiondown
ENCODING 191
SWIDTH 530 0
DWIDTH 7 0
BBX 5 10 1 0
BITMAP
20
20
00
20
20
60
C0
80
88
70
ENDCHAR
STARTCHAR Agrave
ENCODING 192
SWIDTH 684 0
DWIDTH 9 0
BBX 9 13 0 0
BITMAP
1000
0800
0000
0800
1400
1400
2200
2200
2200
7F00
4100
4100
8080
ENDCHAR
STARTCHAR Aacute
ENCODING 193
SWIDTH 684 0
DWIDTH 9 0
BBX 9 13 0 0
BITMAP
0400
0800
0000
0800
1400
1400
2200
2200
2200
7F00
4100
4100
8080
ENDCHAR
STARTCHAR Acircumflex
ENCODING 194
SWIDTH 684 0
DWIDTH 9 0
BBX 9 13 0 0
BITMAP
0C00
1200
0000
0800
1400
1400
2200
2200
2200
7F00
4100
4100
8080
ENDCHAR
STARTCHAR Atilde
ENCODING 195
SWIDTH 684 0
DWIDTH 9 0
BBX 9 13 0 0
BITMAP
3A00
2E00
0000
0800
1400
1400
2200
2200
2200
7F00
4100
4100
8080
ENDCHAR
STARTCHAR Adieresis
ENCODING 196
SWIDTH 684 0
DWIDTH 9 0
BBX 9 12 0 0
BITMAP
1400
0000
0800
1400
1400
2200
2200
2200
7F00
4100
4100
8080
ENDCHAR
STARTCHAR Aring
ENCODING 197
SWIDTH 684 0
DWIDTH 9 0
BBX 9 13 0 0
BITMAP
1C00
1400
1400
0800
0800
1400
1400
2200
2200
7F00
4100
4100
8080
ENDCHAR
STARTCHAR AE
ENCODING 198
SWIDTH 974 0
DWIDTH 14 0
BBX 13 10 0 0
BITMAP
0FF8
0A00
1200
1200
23F8
2200
7E00
4200
4200
83F8
ENDCHAR
STARTCHAR Ccedilla
ENCODING 199
SWIDTH 698 0
DWIDTH 10 0
BBX 8 13 1 -3
BITMAP
3E
61
C0
80
80
80
80
C0
61
3E
08
04
1C
ENDCHAR
STARTCHAR Egrave
ENCODING 200
SWIDTH 631 0
DWIDTH 9 0
BBX 7 13 1 0
BITMAP
20
10
00
FE
80
80
80
FE
80
80
80
80
FE
ENDCHAR
STARTCHAR Eacute
ENCODING 201
SWIDTH 631 0
DWIDTH 9 0
BBX 7 13 1 0
BITMAP
08
10
00
FE
80
80
80
FE
80
80
80
80
FE
ENDCHAR
STARTCHAR Ecircumflex
ENCODING 202
SWIDTH 631 0
DWIDTH 9 0
BBX 7 13 1 0
BITMAP
18
24
00
FE
80
80
80
FE
80
80
80
80
FE
ENDCHAR
STARTCHAR Edieresis
ENCODING 203
SWIDTH 631 0
DWIDTH 9 0
BBX 7 12 1 0
BITMAP
28
00
FE
80
80
80
FE
80
80
80
80
FE
ENDCHAR
STARTCHAR Igrave
ENCODING 204
SWIDTH 294 0
DWIDTH 3 0
BBX 2 13 1 0
BITMAP
80
40
00
80
80
80
80
80
80
80
80
80
80
ENDCHAR
STARTCHAR Iacute
ENCODING 205
SWIDTH 294 0
DWIDTH 3 0
BBX 3 13 1 0
BITMAP
20
40
00
80
80
80
80
80
80
80
80
80
80
ENDCHAR
STARTCHAR Icircumflex
ENCODING 206
SWIDTH 294 0
DWIDTH 3 0
BBX 4 13 1 0
BITMAP
60
90
00
80
80
80
80
80
80
80
80
80
80
ENDCHAR
STARTCHAR Idieresis
ENCODING 207
SWIDTH 294 0
DWIDTH 3 0
BBX 3 12 1 0
BITMAP
A0
00
80
80
80
80
80
80
80
80
80
80
ENDCHAR
STARTCHAR Eth
ENCODING 208
SWIDTH 774 0
DWIDTH 11 0
BBX 10 10 0 0
BITMAP
7E00
4180
4080
4040
F040
4040
4040
4080
4180
7E00
ENDCHAR
STARTCHAR Ntilde
ENCODING 209
SWIDTH 748 0
DWIDTH 10 0
BBX 8 13 1 0
BITMAP
3A
2E
00
C1
C1
A1
91
91
89
89
85
83
83
ENDCHAR
STARTCHAR Ograve
ENCODING 210
SWIDTH 787 0
DWIDTH 11 0
BBX 9 13 1 0
BITMAP
1000
0800
0000
3E00
6300
C180
8080
8080
8080
8080
C180
6300
3E00
ENDCHAR
STARTCHAR Oacute
ENCODING 211
SWIDTH 787 0
DWIDTH 11 0
BBX 9 13 1 0
BITMAP
0400
0800
0000
3E00
6300
C180
8080
8080
8080
8080
C180
6300
3E00
ENDCHAR
STARTCHAR Ocircumflex
ENCODING 212
SWIDTH 787 0
DWIDTH 11 0
BBX 9 13 1 0
BITMAP
0C00
1200
0000
3E00
6300
C180
8080
8080
8080
8080
C180
6300
3E00
ENDCHAR
STARTCHAR Otilde
ENCODING 213
SWIDTH 787 0
DWIDTH 11 0
BBX 9 13 1 0
BITMAP
3A00
2E00
0000
3E00
6300
C180
8080
8080
8080
8080
C180
6300
3E00
ENDCHAR
STARTCHAR Odieresis
ENCODING 214
SWIDTH 787 0
DWIDTH 11 0
BBX 9 12 1 0
BITMAP
1400
0000
3E00
6300
C180
8080
8080
8080
8080
C180
6300
3E00
ENDCHAR
STARTCHAR multiply
ENCODING 215
SWIDTH 837 0
DWIDTH 12 0
BBX 8 8 2 0
BITMAP
81
42
24
18
18
24
42
81
ENDCHAR
STARTCHAR Oslash
ENCODING 216
SWIDTH 787 0
DWIDTH 11 0
BBX 9 10 1 0
BITMAP
3E80
6300
C300
8480
8880
8880
9080
6100
6300
BE00
ENDCHAR
STARTCHAR Ugrave
ENCODING 217
SWIDTH 731 0
DWIDTH 10 0
BBX 8 13 1 0
BITMAP
10
08
00
81
81
81
81
81
81
81
81
42
3C
ENDCHAR
STARTCHAR Uacute
ENCODING 218
SWIDTH 731 0
DWIDTH 10 0
BBX 8 13 1 0
BITMAP
04
08
00
81
81
81
81
81
81
81
81
42
3C
ENDCHAR
STARTCHAR Ucircumflex
ENCODING 219
SWIDTH 731 0
DWIDTH 10 0
BBX 8 13 1 0
BITMAP
0C
12
00
81
81
81
81
81
81
81
81
42
3C
ENDCHAR
STARTCHAR Udieresis
ENCODING 220
SWIDTH 731 0
DWIDTH 10 0
BBX 8 12 1 0
BITMAP
14
00
81
81
81
81
81
81
81
81
42
3C
ENDCHAR
STARTCHAR Yacute
ENCODING 221
SWIDTH 610 0
DWIDTH 9 0
BBX 9 13 0 0
BITMAP
0400
0800
0000
C180
4100
2200
2200
1400
0800
0800
0800
0800
0800
ENDCHAR
STARTCHAR Thorn
ENCODING 222
SWIDTH 604 0
DWIDTH 9 0
BBX 7 10 1 0
BITMAP
80
FC
86
82
82
86
FC
80
80
80
ENDCHAR
STARTCHAR germandbls
ENCODING 223
SWIDTH 629 0
DWIDTH 9 0
BBX 7 11 1 0
BITMAP
78
C4
84
98
90
90
9C
86
82
82
BC
ENDCHAR
STARTCHAR agrave
ENCODING 224
SWIDTH 612 0
DWIDTH 8 0
BBX 6 12 1 0
BITMAP
60
20
10
00
78
84
04
7C
84
84
8C
74
ENDCHAR
STARTCHAR aacute
ENCODING 225
SWIDTH 612 0
DWIDTH 8 0
BBX 6 12 1 0
BITMAP
0C
08
10
00
78
84
04
7C
84
84
8C
74
ENDCHAR
STARTCHAR acircumflex
ENCODING 226
SWIDTH 612 0
DWIDTH 8 0
BBX 6 12 1 0
BITMAP
30
30
48
00
78
84
04
7C
84
84
8C
74
ENDCHAR
STARTCHAR atilde
ENCODING 227
SWIDTH 612 0
DWIDTH 8 0
BBX 6 11 1 0
BITMAP
74
5C
00
78
84
04
7C
84
84
8C
74
ENDCHAR
STARTCHAR adieresis
ENCODING 228
SWIDTH 612 0
DWIDTH 8 0
BBX 6 11 1 0
BITMAP
28
00
00
78
84
04
7C
84
84
8C
74
ENDCHAR
STARTCHAR aring
ENCODING 229
SWIDTH 612 0
DWIDTH 8 0
BBX 6 13 1 0
BITMAP
18
24
24
18
00
78
84
04
7C
84
84
8C
74
ENDCHAR
STARTCHAR ae
ENCODING 230
SWIDTH 981 0
DWIDTH 14 0
BBX 12 8 1 0
BITMAP
7BE0
8620
0410
7FF0
8400
8400
8A10
71E0
ENDCHAR
STARTCHAR ccedilla
ENCODING 231
SWIDTH 549 0
DWIDTH 8 0
BBX 6 11 1 -3
BITMAP
38
44
80
80
80
80
44
38
10
08
38
ENDCHAR
STARTCHAR egrave
ENCODING 232
SWIDTH 615 0
DWIDTH 9 0
BBX 7 12 1 0
BITMAP
60
20
10
00
3C
46
82
FE
80
80
42
3C
ENDCHAR
STARTCHAR eacute
ENCODING 233
SWIDTH 615 0
DWIDTH 9 0
BBX 7 12 1 0
BITMAP
0C
08
10
00
3C
46
82
FE
80
80
42
3C
ENDCHAR
STARTCHAR ecircumflex
ENCODING 234
SWIDTH 615 0
DWIDTH 9 0
BBX 7 12 1 0
BITMAP
30
30
48
00
3C
46
82
FE
80
80
42
3C
ENDCHAR
STARTCHAR edieresis
ENCODING 235
SWIDTH 615 0
DWIDTH 9 0
BBX 7 11 1 0
BITMAP
28
00
00
3C
46
82
FE
80
80
42
3C
ENDCHAR
STARTCHAR igrave
ENCODING 236
SWIDTH 277 0
DWIDTH 3 0
BBX 3 12 -1 0
BITMAP
C0
40
20
00
20
20
20
20
20
20
20
20
ENDCHAR
STARTCHAR iacute
ENCODING 237
SWIDTH 277 0
DWIDTH 3 0
BBX 3 12 1 0
BITMAP
60
40
80
00
80
80
80
80
80
80
80
80
ENDCHAR
STARTCHAR icircumflex
ENCODING 238
SWIDTH 277 0
DWIDTH 3 0
BBX 4 12 -1 0
BITMAP
60
60
90
00
20
20
20
20
20
20
20
20
ENDCHAR
STARTCHAR idieresis
ENCODING 239
SWIDTH 277 0
DWIDTH 3 0
BBX 3 11 0 0
BITMAP
A0
00
00
40
40
40
40
40
40
40
40
ENDCHAR
STARTCHAR eth
ENCODING 240
SWIDTH 611 0
DWIDTH 9 0
BBX 7 11 1 0
BITMAP
2C
70
08
3C
46
82
82
82
82
44
38
ENDCHAR
STARTCHAR ntilde
ENCODING 241
SWIDTH 633 0
DWIDTH 9 0
BBX 7 11 1 0
BITMAP
74
5C
00
BC
C6
82
82
82
82
82
82
ENDCHAR
STARTCHAR ograve
ENCODING 242
SWIDTH 611 0
DWIDTH 9 0
BBX 7 12 1 0
BITMAP
60
20
10
00
38
44
82
82
82
82
44
38
ENDCHAR
STARTCHAR oacute
ENCODING 243
SWIDTH 611 0
DWIDTH 9 0
BBX 7 12 1 0
BITMAP
0C
08
10
00
38
44
82
82
82
82
44
38
ENDCHAR
STARTCHAR ocircumflex
ENCODING 244
SWIDTH 611 0
DWIDTH 9 0
BBX 7 12 1 0
BITMAP
30
30
48
00
38
44
82
82
82
82
44
38
ENDCHAR
STARTCHAR otilde
ENCODING 245
SWIDTH 611 0
DWIDTH 9 0
BBX 7 11 1 0
BITMAP
74
5C
00
38
44
82
82
82
82
44
38
ENDCHAR
STARTCHAR odieresis
ENCODING 246
SWIDTH 611 0
DWIDTH 9 0
BBX 7 11 1 0
BITMAP
28
00
00
38
44
82
82
82
82
44
38
ENDCHAR
STARTCHAR divide
ENCODING 247
SWIDTH 837 0
DWIDTH 12 0
BBX 10 7 1 1
BITMAP
0C00
0C00
0000
FFC0
0000
0C00
0C00
ENDCHAR
STARTCHAR oslash
ENCODING 248
SWIDTH 611 0
DWIDTH 9 0
BBX 7 8 1 0
BITMAP
3A
44
8A
92
92
A2
44
B8
ENDCHAR
STARTCHAR ugrave
ENCODING 249
SWIDTH 633 0
DWIDTH 9 0
BBX 7 12 1 0
BITMAP
60
20
10
00
82
82
82
82
82
82
C6
7A
ENDCHAR
STARTCHAR uacute
ENCODING 250
SWIDTH 633 0
DWIDTH 9 0
BBX 7 12 1 0
BITMAP
0C
08
10
00
82
82
82
82
82
82
C6
7A
ENDCHAR
STARTCHAR ucircumflex
ENCODING 251
SWIDTH 633 0
DWIDTH 9 0
BBX 7 12 1 0
BITMAP
30
30
48
00
82
82
82
82
82
82
C6
7A
ENDCHAR
STARTCHAR udieresis
ENCODING 252
SWIDTH 633 0
DWIDTH 9 0
BBX 7 11 1 0
BITMAP
28
00
00
82
82
82
82
82
82
C6
7A
ENDCHAR
STARTCHAR yacute
ENCODING 253
SWIDTH 591 0
DWIDTH 7 0
BBX 7 15 0 -3
BITMAP
06
04
08
00
82
82
44
44
28
28
10
10
10
20
C0
ENDCHAR
STARTCHAR thorn
ENCODING 254
SWIDTH 634 0
DWIDTH 9 0
BBX 7 14 1 -3
BITMAP
80
80
80
B8
C4
82
82
82
82
C4
B8
80
80
80
ENDCHAR
STARTCHAR ydieresis
ENCODING 255
SWIDTH 591 0
DWIDTH 7 0
BBX 7 14 0 -3
BITMAP
14
00
00
82
82
44
44
28
28
10
10
10
20
C0
ENDCHAR
STARTCHAR .notdef
ENCODING -1
SWIDTH 600 0
DWIDTH 8 0
BBX 7 12 1 -2
BITMAP
FE
82
82
82
82
82
82
82
82
82
82
FE
ENDCHAR
STARTCHAR .null
ENCODING -1
SWIDTH 0 0
DWIDTH 0 0
BBX 1 1 0 0
BITMAP
00
ENDCHAR
STARTCHAR nonmarkingreturn
ENCODING -1
SWIDTH 317 0
DWIDTH 4 0
BBX 1 1 0 0
BITMAP
00
ENDCHAR
STARTCHAR dagger
ENCODING -1
SWIDTH 500 0
DWIDTH 7 0
BBX 7 11 0 -1
BITMAP
10
10
10
FE
10
10
10
10
10
10
10
ENDCHAR
STARTCHAR bullet
ENCODING -1
SWIDTH 589 0
DWIDTH 8 0
BBX 4 4 2 3
BITMAP
60
F0
F0
60
ENDCHAR
STARTCHAR trademark
ENCODING -1
SWIDTH 1000 0
DWIDTH 14 0
BBX 9 4 2 6
BITMAP
ED80
4D80
4A80
4880
ENDCHAR
STARTCHAR notequal
ENCODING -1
SWIDTH 837 0
DWIDTH 12 0
BBX 9 8 1 1
BITMAP
0100
0200
FF80
0C00
1800
FF80
2000
4000
ENDCHAR
STARTCHAR infinity
ENCODING -1
SWIDTH 833 0
DWIDTH 12 0
BBX 9 5 2 2
BITMAP
6700
9480
8880
9880
7700
ENDCHAR
STARTCHAR lessequal
ENCODING -1
SWIDTH 837 0
DWIDTH 12 0
BBX 9 8 1 0
BITMAP
0180
1E00
F000
F000
1E00
0180
0000
FF80
ENDCHAR
STARTCHAR greaterequal
ENCODING -1
SWIDTH 837 0
DWIDTH 12 0
BBX 9 8 1 0
BITMAP
C000
3C00
0780
0780
3C00
C000
0000
FF80
ENDCHAR
STARTCHAR partialdiff
ENCODING -1
SWIDTH 517 0
DWIDTH 7 0
BBX 6 9 0 0
BITMAP
38
0C
04
74
CC
8C
8C
98
70
ENDCHAR
STARTCHAR summation
ENCODING -1
SWIDTH 673 0
DWIDTH 9 0
BBX 9 13 0 -3
BITMAP
FF80
4000
2000
1000
0800
0400
0400
0800
1000
2000
4000
8000
FF80
ENDCHAR
STARTCHAR product
ENCODING -1
SWIDTH 756 0
DWIDTH 11 0
BBX 8 13 1 -3
BITMAP
FF
81
81
81
81
81
81
81
81
81
81
81
81
ENDCHAR
STARTCHAR pi
ENCODING -1
SWIDTH 588 0
DWIDTH 8 0
BBX 8 7 0 0
BITMAP
7F
A2
24
24
64
44
46
ENDCHAR
STARTCHAR integral
ENCODING -1
SWIDTH 520 0
DWIDTH 7 0
BBX 7 13 0 -2
BITMAP
0E
08
10
10
10
10
10
10
10
10
10
20
E0
ENDCHAR
STARTCHAR Omega
ENCODING -1
SWIDTH 764 0
DWIDTH 11 0
BBX 9 10 1 0
BITMAP
3E00
6300
C180
8080
8080
8080
8080
4100
6300
F780
ENDCHAR
STARTCHAR radical
ENCODING -1
SWIDTH 637 0
DWIDTH 9 0
BBX 9 12 0 -1
BITMAP
0180
0100
0100
0200
0200
C400
6400
2400
3800
3800
1000
1000
ENDCHAR
STARTCHAR florin
ENCODING -1
SWIDTH 636 0
DWIDTH 9 0
BBX 9 14 0 -3
BITMAP
0380
0600
0400
0400
0800
3E00
0800
0800
0800
1000
1000
1000
1000
E000
ENDCHAR
STARTCHAR approxequal
ENCODING -1
SWIDTH 837 0
DWIDTH 12 0
BBX 9 5 1 2
BITMAP
7880
8F00
0000
7880
8F00
ENDCHAR
STARTCHAR Delta
ENCODING -1
SWIDTH 668 0
DWIDTH 9 0
BBX 9 10 0 0
BITMAP
0800
1C00
1400
3600
2200
2200
6300
4100
4100
FF80
ENDCHAR
STARTCHAR ellipsis
ENCODING -1
SWIDTH 1000 0
DWIDTH 14 0
BBX 11 2 2 0
BITMAP
8420
8420
ENDCHAR
STARTCHAR OE
ENCODING -1
SWIDTH 1069 0
DWIDTH 15 0
BBX 13 10 1 0
BITMAP
1FF8
6200
C200
8200
83F8
8200
8200
C200
6200
1FF8
ENDCHAR
STARTCHAR oe
ENCODING -1
SWIDTH 1022 0
DWIDTH 15 0
BBX 13 8 1 0
BITMAP
38F0
4518
8208
83F8
8200
8200
4508
38F0
ENDCHAR
STARTCHAR endash
ENCODING -1
SWIDTH 500 0
DWIDTH 7 0
BBX 7 1 0 3
BITMAP
FE
ENDCHAR
STARTCHAR emdash
ENCODING -1
SWIDTH 1000 0
DWIDTH 14 0
BBX 14 1 0 3
BITMAP
FFFC
ENDCHAR
STARTCHAR quotedblleft
ENCODING -1
SWIDTH 518 0
DWIDTH 7 0
BBX 4 3 1 7
BITMAP
50
A0
A0
ENDCHAR
STARTCHAR quotedblright
ENCODING -1
SWIDTH 518 0
DWIDTH 7 0
BBX 4 3 1 7
BITMAP
50
50
A0
ENDCHAR
STARTCHAR quoteleft
ENCODING -1
SWIDTH 317 0
DWIDTH 4 0
BBX 2 3 1 7
BITMAP
40
80
80
ENDCHAR
STARTCHAR quoteright
ENCODING -1
SWIDTH 317 0
DWIDTH 4 0
BBX 2 3 1 7
BITMAP
40
40
80
ENDCHAR
STARTCHAR lozenge
ENCODING -1
SWIDTH 494 0
DWIDTH 7 0
BBX 7 15 0 -3
BITMAP
10
10
28
28
44
44
82
82
82
44
44
28
28
10
10
ENDCHAR
STARTCHAR Ydieresis
ENCODING -1
SWIDTH 610 0
DWIDTH 9 0
BBX 9 12 0 0
BITMAP
1400
0000
C180
4100
2200
2200
1400
0800
0800
0800
0800
0800
ENDCHAR
STARTCHAR fraction
ENCODING -1
SWIDTH 166 0
DWIDTH 2 0
BBX 7 10 -3 0
BITMAP
02
04
0C
08
10
10
20
60
40
80
ENDCHAR
STARTCHAR guilsinglleft
ENCODING -1
SWIDTH 399 0
DWIDTH 6 0
BBX 3 6 1 1
BITMAP
20
60
C0
C0
60
20
ENDCHAR
STARTCHAR guilsinglright
ENCODING -1
SWIDTH 399 0
DWIDTH 6 0
BBX 3 6 1 1
BITMAP
80
C0
60
60
C0
80
ENDCHAR
STARTCHAR fi
ENCODING -1
SWIDTH 629 0
DWIDTH 8 0
BBX 7 11 0 0
BITMAP
32
42
40
FE
42
42
42
42
42
42
42
ENDCHAR
STARTCHAR fl
ENCODING -1
SWIDTH 629 0
DWIDTH 8 0
BBX 7 11 0 0
BITMAP
3E
42
42
F2
42
42
42
42
42
42
42
ENDCHAR
STARTCHAR daggerdbl
ENCODING -1
SWIDTH 500 0
DWIDTH 7 0
BBX 7 11 0 -1
BITMAP
10
10
10
FE
10
10
10
FE
10
10
10
ENDCHAR
STARTCHAR quotesinglbase
ENCODING -1
SWIDTH 317 0
DWIDTH 4 0
BBX 2 3 1 -1
BITMAP
40
40
80
ENDCHAR
STARTCHAR quotedblbase
ENCODING -1
SWIDTH 518 0
DWIDTH 7 0
BBX 4 3 1 -1
BITMAP
50
50
A0
ENDCHAR
STARTCHAR perthousand
ENCODING -1
SWIDTH 1341 0
DWIDTH 19 0
BBX 18 10 0 0
BITMAP
708000
888000
890000
8B0000
8AE380
751440
0D1440
091440
111440
10E380
ENDCHAR
STARTCHAR dotlessi
ENCODING -1
SWIDTH 277 0
DWIDTH 3 0
BBX 1 8 1 0
BITMAP
80
80
80
80
80
80
80
80
ENDCHAR
STARTCHAR circumflex
ENCODING -1
SWIDTH 500 0
DWIDTH 7 0
BBX 4 3 1 9
BITMAP
60
60
90
ENDCHAR
STARTCHAR tilde
ENCODING -1
SWIDTH 500 0
DWIDTH 7 0
BBX 5 2 1 9
BITMAP
E8
B8
ENDCHAR
STARTCHAR breve
ENCODING -1
SWIDTH 500 0
DWIDTH 7 0
BBX 4 2 1 9
BITMAP
90
60
ENDCHAR
STARTCHAR dotaccent
ENCODING -1
SWIDTH 500 0
DWIDTH 7 0
BBX 1 1 3 10
BITMAP
80
ENDCHAR
STARTCHAR ring
ENCODING -1
SWIDTH 500 0
DWIDTH 7 0
BBX 4 4 2 9
BITMAP
60
90
90
60
ENDCHAR
STARTCHAR hungarumlaut
ENCODING -1
SWIDTH 500 0
DWIDTH 7 0
BBX 5 3 2 9
BITMAP
58
90
A0
ENDCHAR
STARTCHAR ogonek
ENCODING -1
SWIDTH 500 0
DWIDTH 7 0
BBX 3 3 2 -3
BITMAP
80
80
E0
ENDCHAR
STARTCHAR caron
ENCODING -1
SWIDTH 500 0
DWIDTH 7 0
BBX 4 3 1 9
BITMAP
90
60
60
ENDCHAR
STARTCHAR Lslash
ENCODING -1
SWIDTH 562 0
DWIDTH 7 0
BBX 8 10 -1 0
BITMAP
20
20
20
2C
30
60
E0
20
20
3F
ENDCHAR
STARTCHAR lslash
ENCODING -1
SWIDTH 284 0
DWIDTH 3 0
BBX 3 11 0 0
BITMAP
40
40
40
40
60
40
C0
40
40
40
40
ENDCHAR
STARTCHAR Scaron
ENCODING -1
SWIDTH 634 0
DWIDTH 9 0
BBX 7 13 1 0
BITMAP
24
18
00
7C
C2
80
80
60
1C
02
02
86
7C
ENDCHAR
STARTCHAR scaron
ENCODING -1
SWIDTH 520 0
DWIDTH 8 0
BBX 6 12 1 0
BITMAP
90
60
60
00
78
84
80
E0
1C
04
84
78
ENDCHAR
STARTCHAR Zcaron
ENCODING -1
SWIDTH 685 0
DWIDTH 10 0
BBX 8 13 1 0
BITMAP
24
18
00
FF
01
02
04
08
10
20
40
80
FF
ENDCHAR
STARTCHAR zcaron
ENCODING -1
SWIDTH 524 0
DWIDTH 8 0
BBX 6 12 1 0
BITMAP
90
60
60
00
FC
04
08
10
20
40
80
FC
ENDCHAR
STARTCHAR minus
ENCODING -1
SWIDTH 837 0
DWIDTH 12 0
BBX 9 1 1 4
BITMAP
FF80
ENDCHAR
STARTCHAR Gbreve
ENCODING -1
SWIDTH 774 0
DWIDTH 11 0
BBX 9 13 1 0
BITMAP
1200
0C00
0000
1F00
6080
4000
8000
8000
8380
8080
4080
6080
1F00
ENDCHAR
STARTCHAR gbreve
ENCODING -1
SWIDTH 634 0
DWIDTH 9 0
BBX 7 14 1 -3
BITMAP
48
30
00
3A
46
82
82
82
82
46
3A
02
46
3C
ENDCHAR
STARTCHAR Idotaccent
ENCODING -1
SWIDTH 294 0
DWIDTH 3 0
BBX 2 13 1 0
BITMAP
40
00
00
80
80
80
80
80
80
80
80
80
80
ENDCHAR
STARTCHAR Scedilla
ENCODING -1
SWIDTH 634 0
DWIDTH 9 0
BBX 7 13 1 -3
BITMAP
7C
C2
80
80
60
1C
02
02
86
7C
10
08
38
ENDCHAR
STARTCHAR scedilla
ENCODING -1
SWIDTH 520 0
DWIDTH 8 0
BBX 6 11 1 -3
BITMAP
78
84
80
E0
1C
04
84
78
20
10
70
ENDCHAR
STARTCHAR Cacute
ENCODING -1
SWIDTH 698 0
DWIDTH 10 0
BBX 8 13 1 0
BITMAP
04
08
00
3E
61
C0
80
80
80
80
C0
61
3E
ENDCHAR
STARTCHAR cacute
ENCODING -1
SWIDTH 549 0
DWIDTH 8 0
BBX 6 12 1 0
BITMAP
0C
08
10
00
38
44
80
80
80
80
44
38
ENDCHAR
STARTCHAR Ccaron
ENCODING -1
SWIDTH 698 0
DWIDTH 10 0
BBX 8 13 1 0
BITMAP
12
0C
00
3E
61
C0
80
80
80
80
C0
61
3E
ENDCHAR
STARTCHAR ccaron
ENCODING -1
SWIDTH 549 0
DWIDTH 8 0
BBX 6 12 1 0
BITMAP
48
30
30
00
38
44
80
80
80
80
44
38
ENDCHAR
STARTCHAR dcroat
ENCODING -1
SWIDTH 634 0
DWIDTH 9 0
BBX 8 11 1 0
BITMAP
02
0F
02
3A
46
82
82
82
82
46
3A
ENDCHAR
STARTCHAR periodcentered
ENCODING -1
SWIDTH 317 0
DWIDTH 4 0
BBX 1 2 2 4
BITMAP
80
80
ENDCHAR
STARTCHAR Euro
ENCODING -1
SWIDTH 636 0
DWIDTH 9 0
BBX 8 10 0 0
BITMAP
1E
21
40
FC
40
F8
40
40
21
1E
ENDCHAR
STARTCHAR c6459
ENCODING -1
SWIDTH 500 0
DWIDTH 7 0
BBX 3 1 2 8
BITMAP
A0
ENDCHAR
STARTCHAR c6460
ENCODING -1
SWIDTH 500 0
DWIDTH 7 0
BBX 2 2 3 8
BITMAP
40
80
ENDCHAR
STARTCHAR c6461
ENCODING -1
SWIDTH 500 0
DWIDTH 7 0
BBX 5 2 1 8
BITMAP
E8
B8
ENDCHAR
STARTCHAR c6462
ENCODING -1
SWIDTH 500 0
DWIDTH 7 0
BBX 2 2 2 8
BITMAP
80
40
ENDCHAR
STARTCHAR c6463
ENCODING -1
SWIDTH 500 0
DWIDTH 7 0
BBX 4 2 2 8
BITMAP
60
90
ENDCHAR
STARTCHAR c6466
ENCODING -1
SWIDTH 500 0
DWIDTH 7 0
BBX 4 2 2 8
BITMAP
90
60
ENDCHAR
STARTCHAR c6467
ENCODING -1
SWIDTH 400 0
DWIDTH 6 0
BBX 5 6 0 5
BITMAP
10
30
50
90
F8
10
ENDCHAR
STARTCHAR c6468
ENCODING -1
SWIDTH 500 0
DWIDTH 7 0
BBX 4 2 2 8
BITMAP
90
60
ENDCHAR
STARTCHAR c6469
ENCODING -1
SWIDTH 500 0
DWIDTH 7 0
BBX 1 1 3 9
BITMAP
80
ENDCHAR
ENDFONT
